# WaveFront *.obj file (generated by Autodesk ATF)

mtllib APT Roller Door v1.mtl

g Solid1

v 11600.000000 -6300.000000 600.000000
v 11600.000000 -6300.000000 2800.000000
v 11600.000000 -6270.000000 600.000000
v 11600.000000 -6270.000000 2655.000000
v 11600.000000 -6244.642334 2642.617798
v 11600.000000 -6225.000000 2790.000000
v 11600.000000 -6216.504517 2640.482788
v 11600.000000 -6197.284546 2784.691162
v 11600.000000 -6189.569092 2648.896790
v 11600.000000 -6173.493042 2769.516602
v 11600.000000 -6167.649536 2666.668701
v 11600.000000 -6156.993408 2746.624146
v 11600.000000 -6153.848877 2691.282959
v 11600.000000 -6150.120850 2719.254761
v 11600.000000 -6150.000000 2790.000000
v 11600.000000 -6150.000000 2800.000000
v 13550.000000 -6300.000000 600.000000
v 13550.000000 -6300.000000 2800.000000
v 13550.000000 -6270.000000 600.000000
v 13550.000000 -6270.000000 2655.000000
v 13550.000000 -6244.642334 2642.617798
v 13550.000000 -6225.000000 2790.000000
v 13550.000000 -6216.504517 2640.482788
v 13550.000000 -6197.284546 2784.691162
v 13550.000000 -6189.569092 2648.896790
v 13550.000000 -6173.493042 2769.516602
v 13550.000000 -6167.649536 2666.668701
v 13550.000000 -6156.993408 2746.624146
v 13550.000000 -6153.848877 2691.282959
v 13550.000000 -6150.120850 2719.254761
v 13550.000000 -6150.000000 2790.000000
v 13550.000000 -6150.000000 2800.000000
vt 7.500000 -110.000000 0.000000
vt 7.500000 110.000000 0.000000
vt -7.500000 110.000000 0.000000
vt -7.500000 109.000000 0.000000
vt -0.000000 109.000000 0.000000
vt -2.771518 108.469124 0.000000
vt -5.150681 106.951653 0.000000
vt -6.800677 104.662399 0.000000
vt -7.487922 101.925461 0.000000
vt -7.115125 99.128288 0.000000
vt -5.735060 96.666878 0.000000
vt -3.543101 94.889671 0.000000
vt -0.849555 94.048271 0.000000
vt 1.964260 94.261787 0.000000
vt 4.500000 95.500000 0.000000
vt 4.500000 -110.000000 0.000000
vt 15.000000 -5.000000 0.000000
vt 15.000000 190.000000 0.000000
vt 0.000000 190.000000 0.000000
vt 0.000000 -5.000000 0.000000
vt 1.000000 -5.000000 0.000000
vt 1.000000 190.000000 0.000000
vt 0.000000 190.000000 0.000000
vt 0.000000 -5.000000 0.000000
vt 7.500000 -5.000000 0.000000
vt 7.500000 190.000000 0.000000
vt 0.000000 190.000000 0.000000
vt 0.000000 -5.000000 0.000000
vt 5.000000 11.780972 0.000000
vt -190.000000 11.780972 0.000000
vt -190.000000 8.942152 0.000000
vt -190.000000 6.103332 0.000000
vt -190.000000 3.264511 0.000000
vt -190.000000 0.425691 0.000000
vt -190.000000 -2.413129 0.000000
vt -190.000000 -5.251949 0.000000
vt -190.000000 -8.090770 0.000000
vt -190.000000 -10.929590 0.000000
vt -190.000000 -13.768410 0.000000
vt -190.000000 -16.607231 0.000000
vt 5.000000 -16.607231 0.000000
vt 5.000000 -13.768410 0.000000
vt 5.000000 -10.929590 0.000000
vt 5.000000 -8.090770 0.000000
vt 5.000000 -5.251949 0.000000
vt 5.000000 -2.413129 0.000000
vt 5.000000 0.425691 0.000000
vt 5.000000 3.264511 0.000000
vt 5.000000 6.103332 0.000000
vt 5.000000 8.942152 0.000000
vt 205.500000 -5.000000 0.000000
vt 205.500000 190.000000 0.000000
vt 0.000000 190.000000 0.000000
vt 0.000000 -5.000000 0.000000
vt 3.000000 -5.000000 0.000000
vt 3.000000 190.000000 0.000000
vt 0.000000 190.000000 0.000000
vt 0.000000 -5.000000 0.000000
vt 220.000000 -5.000000 0.000000
vt 220.000000 190.000000 0.000000
vt 0.000000 190.000000 0.000000
vt 0.000000 -5.000000 0.000000
vt -7.500000 110.000000 0.000000
vt -7.500000 -110.000000 0.000000
vt -4.500000 -110.000000 0.000000
vt -4.500000 95.500000 0.000000
vt -1.964260 94.261787 0.000000
vt 0.849555 94.048271 0.000000
vt 3.543101 94.889671 0.000000
vt 5.735060 96.666878 0.000000
vt 7.115125 99.128288 0.000000
vt 7.487922 101.925461 0.000000
vt 6.800677 104.662399 0.000000
vt 5.150681 106.951653 0.000000
vt 2.771518 108.469124 0.000000
vt 0.000000 109.000000 0.000000
vt 7.500000 109.000000 0.000000
vt 7.500000 110.000000 0.000000
vn -0.100000 0.000000 0.000000
vn -0.100000 0.000000 0.000000
vn -0.100000 0.000000 0.000000
vn -0.100000 0.000000 0.000000
vn -0.100000 0.000000 0.000000
vn -0.100000 0.000000 0.000000
vn -0.100000 0.000000 0.000000
vn -0.100000 0.000000 0.000000
vn -0.100000 0.000000 0.000000
vn -0.100000 0.000000 0.000000
vn -0.100000 0.000000 0.000000
vn -0.100000 0.000000 0.000000
vn -0.100000 0.000000 0.000000
vn -0.100000 0.000000 0.000000
vn -0.100000 0.000000 0.000000
vn -0.100000 0.000000 0.000000
vn 0.000000 0.000000 0.100000
vn 0.000000 0.000000 0.100000
vn 0.000000 0.000000 0.100000
vn 0.000000 0.000000 0.100000
vn 0.000000 0.100000 0.000000
vn 0.000000 0.100000 0.000000
vn 0.000000 0.100000 0.000000
vn 0.000000 0.100000 0.000000
vn 0.000000 0.000000 -0.100000
vn 0.000000 0.000000 -0.100000
vn 0.000000 0.000000 -0.100000
vn 0.000000 0.000000 -0.100000
vn 0.000000 0.000000 0.100000
vn 0.000000 0.000000 0.100000
vn 0.000000 0.036954 0.092922
vn 0.000000 0.068676 0.072689
vn 0.000000 0.090676 0.042165
vn 0.000000 0.099839 0.005673
vn 0.000000 0.094868 -0.031623
vn 0.000000 0.076467 -0.064442
vn 0.000000 0.047241 -0.088138
vn 0.000000 0.011327 -0.099356
vn 0.000000 -0.026190 -0.096509
vn 0.000000 -0.060000 -0.080000
vn 0.000000 -0.060000 -0.080000
vn 0.000000 -0.026190 -0.096509
vn 0.000000 0.011327 -0.099356
vn 0.000000 0.047241 -0.088138
vn 0.000000 0.076467 -0.064442
vn 0.000000 0.094868 -0.031623
vn 0.000000 0.099839 0.005673
vn 0.000000 0.090676 0.042165
vn 0.000000 0.068676 0.072689
vn 0.000000 0.036954 0.092922
vn 0.000000 0.100000 0.000000
vn 0.000000 0.100000 0.000000
vn 0.000000 0.100000 0.000000
vn 0.000000 0.100000 0.000000
vn 0.000000 0.000000 -0.100000
vn 0.000000 0.000000 -0.100000
vn 0.000000 0.000000 -0.100000
vn 0.000000 0.000000 -0.100000
vn 0.000000 -0.100000 0.000000
vn 0.000000 -0.100000 0.000000
vn 0.000000 -0.100000 0.000000
vn 0.000000 -0.100000 0.000000
vn 0.100000 0.000000 0.000000
vn 0.100000 0.000000 0.000000
vn 0.100000 0.000000 0.000000
vn 0.100000 0.000000 0.000000
vn 0.100000 0.000000 0.000000
vn 0.100000 0.000000 0.000000
vn 0.100000 0.000000 0.000000
vn 0.100000 0.000000 0.000000
vn 0.100000 0.000000 0.000000
vn 0.100000 0.000000 0.000000
vn 0.100000 0.000000 0.000000
vn 0.100000 0.000000 0.000000
vn 0.100000 0.000000 0.000000
vn 0.100000 0.000000 0.000000
vn 0.100000 0.000000 0.000000
vn 0.100000 0.000000 0.000000
usemtl 230,233,236
f 3/16/16 1/1/1 4/15/15
f 4/15/15 1/1/1 2/2/2
f 4/15/15 2/2/2 6/5/5
f 6/5/5 2/2/2 16/3/3
f 6/5/5 16/3/3 15/4/4
f 8/6/6 7/13/13 6/5/5
f 6/5/5 7/13/13 5/14/14
f 6/5/5 5/14/14 4/15/15
f 7/13/13 8/6/6 9/12/12
f 9/12/12 8/6/6 10/7/7
f 9/12/12 10/7/7 11/11/11
f 11/11/11 10/7/7 12/8/8
f 11/11/11 12/8/8 13/10/10
f 13/10/10 12/8/8 14/9/9
f 18/18/18 32/19/19 2/17/17
f 2/17/17 32/19/19 16/20/20
f 32/22/22 31/23/23 16/21/21
f 16/21/21 31/23/23 15/24/24
f 31/26/26 22/27/27 15/25/25
f 15/25/25 22/27/27 6/28/28
f 6/29/29 22/30/30 8/50/50
f 8/50/50 22/30/30 24/31/31
f 8/50/50 24/31/31 26/32/32
f 8/50/50 26/32/32 10/49/49
f 10/49/49 26/32/32 28/33/33
f 10/49/49 28/33/33 12/48/48
f 12/48/48 28/33/33 30/34/34
f 12/48/48 30/34/34 14/47/47
f 14/47/47 30/34/34 29/35/35
f 14/47/47 29/35/35 13/46/46
f 13/46/46 29/35/35 27/36/36
f 13/46/46 27/36/36 11/45/45
f 11/45/45 27/36/36 25/37/37
f 11/45/45 25/37/37 9/44/44
f 9/44/44 25/37/37 23/38/38
f 9/44/44 23/38/38 7/43/43
f 7/43/43 23/38/38 21/39/39
f 7/43/43 21/39/39 5/42/42
f 5/42/42 21/39/39 20/40/40
f 5/42/42 20/40/40 4/41/41
f 20/52/52 19/53/53 4/51/51
f 4/51/51 19/53/53 3/54/54
f 19/56/56 17/57/57 3/55/55
f 3/55/55 17/57/57 1/58/58
f 17/60/60 18/61/61 1/59/59
f 1/59/59 18/61/61 2/62/62
f 17/64/64 20/66/66 18/63/63
f 18/63/63 20/66/66 22/76/76
f 18/63/63 22/76/76 32/78/78
f 32/78/78 22/76/76 31/77/77
f 17/64/64 19/65/65 20/66/66
f 20/66/66 21/67/67 22/76/76
f 22/76/76 21/67/67 23/68/68
f 22/76/76 23/68/68 24/75/75
f 24/75/75 23/68/68 25/69/69
f 24/75/75 25/69/69 26/74/74
f 26/74/74 25/69/69 27/70/70
f 26/74/74 27/70/70 28/73/73
f 28/73/73 27/70/70 29/71/71
f 28/73/73 29/71/71 30/72/72

# 32 vertices
# 78 texture params
# 78 normals
# 60 facets

# 1 groups
